<?xml version="1.0" encoding="UTF-8" standalone="no"?>
<!DOCTYPE svg PUBLIC "-//W3C//DTD SVG 1.1//EN"
 "http://www.w3.org/Graphics/SVG/1.1/DTD/svg11.dtd">
<!-- Generated by graphviz version 12.2.1 (20241206.2353)
 -->
<!-- Pages: 1 -->
<svg width="940pt" height="44pt"
 viewBox="0.00 0.00 940.36 44.00" xmlns="http://www.w3.org/2000/svg" xmlns:xlink="http://www.w3.org/1999/xlink">
<g id="graph0" class="graph" transform="scale(1 1) rotate(0) translate(4 40)">
<polygon fill="white" stroke="none" points="-4,4 -4,-40 936.36,-40 936.36,4 -4,4"/>
<!-- ResearchTopics -->
<g id="node1" class="node">
<title>ResearchTopics</title>
<ellipse fill="none" stroke="black" cx="69.78" cy="-18" rx="69.78" ry="18"/>
<text text-anchor="middle" x="69.78" y="-12.95" font-family="Times,serif" font-size="14.00">ResearchTopics</text>
</g>
<!-- Research -->
<g id="node2" class="node">
<title>Research</title>
<ellipse fill="none" stroke="black" cx="220.25" cy="-18" rx="44.7" ry="18"/>
<text text-anchor="middle" x="220.25" y="-12.95" font-family="Times,serif" font-size="14.00">Research</text>
</g>
<!-- ResearchTopics&#45;&gt;Research -->
<g id="edge1" class="edge">
<title>ResearchTopics&#45;&gt;Research</title>
<path fill="none" stroke="black" d="M139.8,-18C147.94,-18 156.16,-18 164.08,-18"/>
<polygon fill="black" stroke="black" points="163.89,-21.5 173.89,-18 163.89,-14.5 163.89,-21.5"/>
</g>
<!-- CreateDeck -->
<g id="node3" class="node">
<title>CreateDeck</title>
<ellipse fill="none" stroke="black" cx="355.37" cy="-18" rx="54.42" ry="18"/>
<text text-anchor="middle" x="355.37" y="-12.95" font-family="Times,serif" font-size="14.00">CreateDeck</text>
</g>
<!-- Research&#45;&gt;CreateDeck -->
<g id="edge2" class="edge">
<title>Research&#45;&gt;CreateDeck</title>
<path fill="none" stroke="black" d="M265.21,-18C272.93,-18 281.11,-18 289.26,-18"/>
<polygon fill="black" stroke="black" points="289.21,-21.5 299.21,-18 289.21,-14.5 289.21,-21.5"/>
</g>
<!-- AddDiagrams -->
<g id="node4" class="node">
<title>AddDiagrams</title>
<ellipse fill="none" stroke="black" cx="508.92" cy="-18" rx="63.12" ry="18"/>
<text text-anchor="middle" x="508.92" y="-12.95" font-family="Times,serif" font-size="14.00">AddDiagrams</text>
</g>
<!-- CreateDeck&#45;&gt;AddDiagrams -->
<g id="edge3" class="edge">
<title>CreateDeck&#45;&gt;AddDiagrams</title>
<path fill="none" stroke="black" d="M410.23,-18C417.98,-18 426.06,-18 434.11,-18"/>
<polygon fill="black" stroke="black" points="433.93,-21.5 443.93,-18 433.93,-14.5 433.93,-21.5"/>
</g>
<!-- AddIllustrations -->
<g id="node5" class="node">
<title>AddIllustrations</title>
<ellipse fill="none" stroke="black" cx="678.84" cy="-18" rx="70.8" ry="18"/>
<text text-anchor="middle" x="678.84" y="-12.95" font-family="Times,serif" font-size="14.00">AddIllustrations</text>
</g>
<!-- AddDiagrams&#45;&gt;AddIllustrations -->
<g id="edge4" class="edge">
<title>AddDiagrams&#45;&gt;AddIllustrations</title>
<path fill="none" stroke="black" d="M572.44,-18C580.24,-18 588.3,-18 596.33,-18"/>
<polygon fill="black" stroke="black" points="596.12,-21.5 606.12,-18 596.12,-14.5 596.12,-21.5"/>
</g>
<!-- ConvertToSlides -->
<g id="node6" class="node">
<title>ConvertToSlides</title>
<ellipse fill="none" stroke="black" cx="859" cy="-18" rx="73.36" ry="18"/>
<text text-anchor="middle" x="859" y="-12.95" font-family="Times,serif" font-size="14.00">ConvertToSlides</text>
</g>
<!-- AddIllustrations&#45;&gt;ConvertToSlides -->
<g id="edge5" class="edge">
<title>AddIllustrations&#45;&gt;ConvertToSlides</title>
<path fill="none" stroke="black" d="M750,-18C757.87,-18 765.96,-18 773.98,-18"/>
<polygon fill="black" stroke="black" points="773.76,-21.5 783.76,-18 773.76,-14.5 773.76,-21.5"/>
</g>
</g>
</svg>
