<?xml version="1.0" encoding="UTF-8" standalone="no"?>
<!DOCTYPE svg PUBLIC "-//W3C//DTD SVG 1.1//EN"
 "http://www.w3.org/Graphics/SVG/1.1/DTD/svg11.dtd">
<!-- Generated by graphviz version 12.2.1 (20241206.2353)
 -->
<!-- Pages: 1 -->
<svg width="248pt" height="404pt"
 viewBox="0.00 0.00 247.87 404.00" xmlns="http://www.w3.org/2000/svg" xmlns:xlink="http://www.w3.org/1999/xlink">
<g id="graph0" class="graph" transform="scale(1 1) rotate(0) translate(4 400)">
<polygon fill="white" stroke="none" points="-4,4 -4,-400 243.87,-400 243.87,4 -4,4"/>
<!-- start -->
<g id="node1" class="node">
<title>start</title>
<ellipse fill="none" stroke="black" cx="119.93" cy="-378" rx="59.03" ry="18"/>
<text text-anchor="middle" x="119.93" y="-372.95" font-family="Times,serif" font-size="14.00">Start: Config</text>
</g>
<!-- plan -->
<g id="node2" class="node">
<title>plan</title>
<ellipse fill="none" stroke="black" cx="119.93" cy="-306" rx="119.93" ry="18"/>
<text text-anchor="middle" x="119.93" y="-300.95" font-family="Times,serif" font-size="14.00">Plan: identifyResearchTopics</text>
</g>
<!-- start&#45;&gt;plan -->
<g id="edge1" class="edge">
<title>start&#45;&gt;plan</title>
<path fill="none" stroke="black" d="M119.93,-359.7C119.93,-352.41 119.93,-343.73 119.93,-335.54"/>
<polygon fill="black" stroke="black" points="123.43,-335.62 119.93,-325.62 116.43,-335.62 123.43,-335.62"/>
</g>
<!-- research -->
<g id="node3" class="node">
<title>research</title>
<ellipse fill="none" stroke="black" cx="119.93" cy="-234" rx="105.6" ry="18"/>
<text text-anchor="middle" x="119.93" y="-228.95" font-family="Times,serif" font-size="14.00">Research: researchTopics</text>
</g>
<!-- plan&#45;&gt;research -->
<g id="edge2" class="edge">
<title>plan&#45;&gt;research</title>
<path fill="none" stroke="black" d="M119.93,-287.7C119.93,-280.41 119.93,-271.73 119.93,-263.54"/>
<polygon fill="black" stroke="black" points="123.43,-263.62 119.93,-253.62 116.43,-263.62 123.43,-263.62"/>
</g>
<!-- create -->
<g id="node4" class="node">
<title>create</title>
<ellipse fill="none" stroke="black" cx="119.93" cy="-162" rx="106.63" ry="18"/>
<text text-anchor="middle" x="119.93" y="-156.95" font-family="Times,serif" font-size="14.00">Create Slides: createDeck</text>
</g>
<!-- research&#45;&gt;create -->
<g id="edge3" class="edge">
<title>research&#45;&gt;create</title>
<path fill="none" stroke="black" d="M119.93,-215.7C119.93,-208.41 119.93,-199.73 119.93,-191.54"/>
<polygon fill="black" stroke="black" points="123.43,-191.62 119.93,-181.62 116.43,-191.62 123.43,-191.62"/>
</g>
<!-- expand -->
<g id="node5" class="node">
<title>expand</title>
<ellipse fill="none" stroke="black" cx="119.93" cy="-90" rx="104.58" ry="18"/>
<text text-anchor="middle" x="119.93" y="-84.95" font-family="Times,serif" font-size="14.00">Expand: expandDigraphs</text>
</g>
<!-- create&#45;&gt;expand -->
<g id="edge4" class="edge">
<title>create&#45;&gt;expand</title>
<path fill="none" stroke="black" d="M119.93,-143.7C119.93,-136.41 119.93,-127.73 119.93,-119.54"/>
<polygon fill="black" stroke="black" points="123.43,-119.62 119.93,-109.62 116.43,-119.62 123.43,-119.62"/>
</g>
<!-- finish -->
<g id="node6" class="node">
<title>finish</title>
<ellipse fill="none" stroke="black" cx="119.93" cy="-18" rx="101.51" ry="18"/>
<text text-anchor="middle" x="119.93" y="-12.95" font-family="Times,serif" font-size="14.00">Export: convertToSlides</text>
</g>
<!-- expand&#45;&gt;finish -->
<g id="edge5" class="edge">
<title>expand&#45;&gt;finish</title>
<path fill="none" stroke="black" d="M119.93,-71.7C119.93,-64.41 119.93,-55.73 119.93,-47.54"/>
<polygon fill="black" stroke="black" points="123.43,-47.62 119.93,-37.62 116.43,-47.62 123.43,-47.62"/>
</g>
</g>
</svg>
