<?xml version="1.0" encoding="UTF-8" standalone="no"?>
<!DOCTYPE svg PUBLIC "-//W3C//DTD SVG 1.1//EN"
 "http://www.w3.org/Graphics/SVG/1.1/DTD/svg11.dtd">
<!-- Generated by graphviz version 12.2.1 (20241206.2353)
 -->
<!-- Pages: 1 -->
<svg width="711pt" height="81pt"
 viewBox="0.00 0.00 711.25 81.00" xmlns="http://www.w3.org/2000/svg" xmlns:xlink="http://www.w3.org/1999/xlink">
<g id="graph0" class="graph" transform="scale(1 1) rotate(0) translate(4 77)">
<polygon fill="white" stroke="none" points="-4,4 -4,-77 707.25,-77 707.25,4 -4,4"/>
<!-- DomainModel -->
<g id="node1" class="node">
<title>DomainModel</title>
<polygon fill="none" stroke="black" points="169.75,-36 0,-36 0,0 169.75,0 169.75,-36"/>
<text text-anchor="middle" x="84.88" y="-12.95" font-family="Times,serif" font-size="14.00">Domain Model (Java Class)</text>
</g>
<!-- Agent -->
<g id="node2" class="node">
<title>Agent</title>
<ellipse fill="none" stroke="black" cx="347.5" cy="-55" rx="45.21" ry="18"/>
<text text-anchor="middle" x="347.5" y="-49.95" font-family="Times,serif" font-size="14.00">AI Agent</text>
</g>
<!-- DomainModel&#45;&gt;Agent -->
<g id="edge1" class="edge">
<title>DomainModel&#45;&gt;Agent</title>
<path fill="none" stroke="black" d="M170.13,-29.96C210.66,-35.72 258.01,-42.44 293.44,-47.47"/>
<polygon fill="black" stroke="black" points="292.6,-50.88 303,-48.82 293.59,-43.95 292.6,-50.88"/>
<text text-anchor="middle" x="227.12" y="-46.23" font-family="Times,serif" font-size="14.00">injects context</text>
</g>
<!-- LLM -->
<g id="node3" class="node">
<title>LLM</title>
<polygon fill="none" stroke="black" points="703.25,-36 570.25,-36 570.25,0 703.25,0 703.25,-36"/>
<text text-anchor="middle" x="636.75" y="-12.95" font-family="Times,serif" font-size="14.00">LLM Prompt Runner</text>
</g>
<!-- Agent&#45;&gt;LLM -->
<g id="edge2" class="edge">
<title>Agent&#45;&gt;LLM</title>
<path fill="none" stroke="black" d="M390.88,-49.54C434.96,-43.86 504.91,-34.85 558.78,-27.91"/>
<polygon fill="black" stroke="black" points="559.05,-31.41 568.52,-26.66 558.15,-24.47 559.05,-31.41"/>
<text text-anchor="middle" x="490.38" y="-47.27" font-family="Times,serif" font-size="14.00">structured input/output</text>
</g>
<!-- LLM&#45;&gt;DomainModel -->
<g id="edge3" class="edge">
<title>LLM&#45;&gt;DomainModel</title>
<path fill="none" stroke="black" d="M570.22,-15.61C525.28,-14.09 464.29,-12.28 410.5,-11.5 354.51,-10.69 340.49,-10.58 284.5,-11.5 250.86,-12.05 214.04,-13.12 181.33,-14.24"/>
<polygon fill="black" stroke="black" points="181.33,-10.74 171.45,-14.59 181.57,-17.74 181.33,-10.74"/>
<text text-anchor="middle" x="347.5" y="-14.7" font-family="Times,serif" font-size="14.00">outputs business object</text>
</g>
</g>
</svg>
